<svg xmlns="http://www.w3.org/2000/svg" xmlns:xlink="http://www.w3.org/1999/xlink" viewBox="0,0,256,256" width="64px" height="64px" fill-rule="nonzero"><g fill="#bebebe" fill-rule="nonzero" stroke="none" stroke-width="1" stroke-linecap="butt" stroke-linejoin="miter" stroke-miterlimit="10" stroke-dasharray="" stroke-dashoffset="0" font-family="none" font-weight="none" font-size="none" text-anchor="none" style="mix-blend-mode: normal"><g transform="scale(4,4)"><path d="M32,4c-15.439,0 -28,12.561 -28,28c0,15.439 12.561,28 28,28c15.439,0 28,-12.561 28,-28c0,-15.439 -12.561,-28 -28,-28zM25,17h4v3h0.67188v0.00195h2.42188c0.319,0 0.6163,0.00567 0.9043,0.01367v-3.01562h4v3.55078c0.749,0.228 1.18417,0.48373 1.45117,0.67773c0.699,0.502 1.28114,1.17086 1.74414,2.00586c0.463,0.835 0.69531,1.77159 0.69531,2.80859c0,1.124 -0.28642,2.15475 -0.85742,3.09375c-0.571,0.939 -1.34331,1.64233 -2.32031,2.11133c1.378,0.426 2.43773,1.15173 3.17773,2.17773c0.742,1.025 1.11133,2.23119 1.11133,3.61719c0,1.092 -0.2388,2.15355 -0.7168,3.18555c-0.478,1.031 -1.36108,1.86861 -2.20508,2.47461c-0.534,0.384 -1.20613,0.68153 -2.07812,0.89453v3.40234h-4v-3.01758c-0.025,0 -0.04727,0.00195 -0.07227,0.00195c-0.572,0 -1.21425,0.01267 -1.90625,0.01367h-2.02148v3h-4v-3h-2v-23.99609h2zM27,24v6h7c1.657,0 3,-1.343 3,-3c0,-1.657 -1.343,-3 -3,-3zM27,34v6h8c1.657,0 3,-1.343 3,-3c0,-1.657 -1.343,-3 -3,-3z"></path></g></g></svg>